<?xml version="1.0" encoding="UTF-8" standalone="no"?>
<svg
   xmlns:dc="http://purl.org/dc/elements/1.1/"
   xmlns:cc="http://creativecommons.org/ns#"
   xmlns:rdf="http://www.w3.org/1999/02/22-rdf-syntax-ns#"
   xmlns:svg="http://www.w3.org/2000/svg"
   xmlns="http://www.w3.org/2000/svg"
   xmlns:sodipodi="http://sodipodi.sourceforge.net/DTD/sodipodi-0.dtd"
   xmlns:inkscape="http://www.inkscape.org/namespaces/inkscape"
   height="24"
   viewBox="0 0 24 24"
   width="24"
   version="1.1"
   id="svg6"
   sodipodi:docname="assignment_ind-24px (copy).svg"
   inkscape:version="0.92.3 (2405546, 2018-03-11)">
  <metadata
     id="metadata12">
    <rdf:RDF>
      <cc:Work
         rdf:about="">
        <dc:format>image/svg+xml</dc:format>
        <dc:type
           rdf:resource="http://purl.org/dc/dcmitype/StillImage" />
      </cc:Work>
    </rdf:RDF>
  </metadata>
  <defs
     id="defs10" />
  <sodipodi:namedview
     pagecolor="#ffffff"
     bordercolor="#666666"
     borderopacity="1"
     objecttolerance="10"
     gridtolerance="10"
     guidetolerance="10"
     inkscape:pageopacity="0"
     inkscape:pageshadow="2"
     inkscape:window-width="1806"
     inkscape:window-height="969"
     id="namedview8"
     showgrid="false"
     inkscape:zoom="14.91"
     inkscape:cx="12.415548"
     inkscape:cy="15.06176"
     inkscape:window-x="114"
     inkscape:window-y="55"
     inkscape:window-maximized="1"
     inkscape:current-layer="svg6" />
  <path
     d="M0 0h24v24H0V0z"
     fill="none"
     id="path2" />
  <path
     d="M 19,3.9999999 H 14.82 C 14.4,2.8399999 13.3,1.9999998 12,1.9999998 c -1.3,0 -2.3999998,0.8400001 -2.8199998,2.0000001 h -4.18 c -1.1,0 -2,0.9 -2,2.0000003 V 20 c 0,1.1 0.9,2 2,2 H 19 c 1.1,0 2,-0.9 2,-2 V 6.0000002 C 21,4.8999998 20.1,3.9999999 19,3.9999999 Z"
     id="path40"
     inkscape:connector-curvature="0"
     style="fill:#0000ff" />
  <path
     d="m 12,4.5975854 c -0.55,0 -1,-0.45 -1,-1 0,-0.55 0.45,-1 1,-1 0.55,0 1,0.45 1,1 0,0.55 -0.45,1 -1,1 z"
     id="path32"
     inkscape:connector-curvature="0"
     style="fill:#ff00ff" />
  <path
     d="m 12,2.8170691 c 0.22,0 0.41,0.1 0.55,0.25 0.12,0.13 0.2,0.31 0.2,0.5 0,0.41 -0.34,0.75 -0.75,0.75 -0.41,0 -0.75,-0.34 -0.75,-0.75 0,-0.19 0.08,-0.37 0.2,-0.5 0.14,-0.15 0.33,-0.25 0.55,-0.25 z"
     id="path38"
     inkscape:connector-curvature="0"
     style="fill:#00ffff" />
  <path
     d="M 19,19 H 5 V 5 h 14 z"
     id="path36"
     inkscape:connector-curvature="0"
     style="fill:#ffffff" />
  <path
     d="m 11.865862,6.0670691 c -1.65,0 -3.0000002,1.35 -3.0000002,3 0,1.6499999 1.3500002,2.9999999 3.0000002,2.9999999 1.65,0 3,-1.35 3,-2.9999999 0,-1.65 -1.35,-3 -3,-3 z"
     id="path34"
     inkscape:connector-curvature="0"
     style="fill:#c83737" />
  <path
     d="m 5.8658618,16.537069 v 1.53 H 17.865862 v -1.53 c 0,-2.5 -3.97,-3.58 -6,-3.58 -2.0300002,0 -6.0000002,1.07 -6.0000002,3.58 z"
     id="path30"
     inkscape:connector-curvature="0"
     style="fill:#c83737" />
  <path
     d="m 8.1758618,16.067069 c 0.69,-0.56 2.3800002,-1.12 3.6900002,-1.12 1.31,0 3.01,0.56 3.69,1.12 z"
     id="path4"
     inkscape:connector-curvature="0"
     style="fill:#ffffff" />
</svg>
